<svg width="893" height="893" viewBox="0 0 893 893" fill="none" xmlns="http://www.w3.org/2000/svg">
<g clip-path="url(#clip0)">
<path d="M298.079 281.286C260.89 242.446 180.262 189.112 76.3513 210.943C145.31 173.902 215.433 155.079 300.694 208.921C386.843 263.307 382.67 308.111 429.413 396.854L426.578 460.656C351.721 379.344 351.917 337.5 298.079 281.286Z" fill="#573877"/>
<path d="M195.239 329C193.766 335.266 192.628 341.648 191.891 348.151C191.802 348.979 191.704 349.802 191.63 350.63C191.513 351.816 191.438 353.007 191.35 354.198C191.215 356.128 191.075 358.059 191 360.013L418.769 485.254L246.219 610.784C252.557 618.212 259.142 625.171 267.029 632L482 486.682L195.239 329Z" fill="white"/>
<path d="M603.153 521H483.153V555H579.5C588.669 543.997 596.486 532.567 603.153 521Z" fill="white"/>
<path d="M276.618 744.871C255.223 787.425 263.508 824.801 281.862 850.541C271.973 822.354 274.294 799.356 282.765 776.322C295.326 742.151 323.196 755.847 343.576 692.743C366.144 622.85 327.404 504.191 398.657 444.46C446.43 404.414 504.223 434.361 533.669 445.797C576.297 462.347 611.46 492.727 654.178 509.537C719.308 535.17 836.84 510.843 881.092 483.127C825.808 504.789 709.722 536.677 624.032 467.097C578.321 429.978 527.856 396.491 468.481 388.903C409.696 381.392 361.053 408.968 336.296 462.835C303.151 534.947 336.628 576.157 327.608 652.461C319.361 722.208 289.583 719.081 276.618 744.871Z" fill="#EC008C"/>
<path d="M515.7 466.618C461.492 451.881 421.05 426.653 385 387.5L390.5 363.5C422.343 415.16 467.25 447.254 515.7 466.618C582.852 484.874 671.131 487.029 798.359 479.61C798.359 479.61 644.508 518.099 515.7 466.618Z" fill="#59B4D9"/>
<path d="M539.283 431.412C539.283 410.373 530.119 391.408 515.494 378.111C502.252 366.07 484.535 358.682 465.029 358.572V358.566C464.957 358.566 464.885 358.568 464.813 358.568C464.74 358.568 464.668 358.566 464.596 358.566V358.572C423.547 358.801 390.342 391.322 390.342 431.412C390.342 442.059 392.031 452.377 392.432 462.883C392.436 462.824 392.439 462.783 392.439 462.783C392.439 462.783 392.438 462.824 392.432 462.883C392.445 463.227 392.469 463.568 392.479 463.91C392.678 470.57 392.984 477.24 393.596 483.877C396.246 501.506 404.102 526.633 426.578 544.988C437.232 553.689 450.627 562.053 464.383 562.088C464.453 562.088 464.525 562.088 464.596 562.088C464.596 562.088 464.812 562.088 465.029 562.088C465.105 562.088 465.182 562.088 465.256 562.088C479 562.053 492.387 553.699 503.035 545.008C525.451 526.715 533.332 501.691 536.01 484.064C536.633 477.365 536.945 470.633 537.145 463.91C537.471 453.049 539.283 442.406 539.283 431.412Z" fill="#59B4D9"/>
<path opacity="0.75" d="M464.383 566.117C452.027 566.086 438.83 560.197 424.029 548.109C400.613 528.986 392.389 502.951 389.613 484.479L389.596 484.365L389.586 484.25C389.043 478.367 388.693 472.133 388.453 464.033C388.447 463.869 388.402 462.916 388.402 462.916C388.23 458.529 387.818 454.049 387.422 449.715C386.877 443.783 386.314 437.65 386.314 431.414C386.314 390.58 419.27 356.939 460.568 354.668V354.547L469.059 354.541V354.666C487.385 355.672 504.707 362.857 518.207 375.133C534.162 389.641 543.314 410.154 543.314 431.414C543.314 437.646 542.748 443.775 542.201 449.701C541.766 454.406 541.318 459.271 541.176 464.033C540.932 472.227 540.576 478.521 540.025 484.441L540.014 484.557L539.996 484.672C537.197 503.096 528.955 529.059 505.586 548.131C490.795 560.203 477.607 566.086 465.27 566.119H464.383V566.117Z" fill="#1E1E1E"/>
<path d="M539.283 431.412C539.283 410.373 530.119 391.408 515.494 378.111C502.252 366.07 484.535 358.682 465.029 358.572V358.566C464.957 358.566 464.885 358.568 464.813 358.568C464.74 358.568 464.668 358.566 464.596 358.566V358.572C423.547 358.801 390.342 391.322 390.342 431.412C390.342 442.059 392.031 452.377 392.432 462.883C392.436 462.824 392.439 462.783 392.439 462.783C392.439 462.783 392.438 462.824 392.432 462.883C392.445 463.227 392.469 463.568 392.479 463.91C392.678 470.57 392.984 477.24 393.596 483.877C396.246 501.506 404.102 526.633 426.578 544.988C437.232 553.689 450.627 562.053 464.383 562.088C464.453 562.088 464.525 562.088 464.596 562.088C464.596 562.088 464.812 562.088 465.029 562.088C465.105 562.088 465.182 562.088 465.256 562.088C479 562.053 492.387 553.699 503.035 545.008C525.451 526.715 533.332 501.691 536.01 484.064C536.633 477.365 536.945 470.633 537.145 463.91C537.471 453.049 539.283 442.406 539.283 431.412Z" fill="#59B4D9"/>
<path d="M393.982 415.615C393.365 418.246 392.889 420.926 392.58 423.656C392.543 424.004 392.502 424.35 392.471 424.697C392.422 425.195 392.391 425.695 392.354 426.195C392.297 427.006 392.238 427.816 392.207 428.637L487.594 481.223L415.332 533.93C417.986 537.049 420.744 539.971 424.047 542.838L514.074 481.822L393.982 415.615Z" fill="white"/>
<path opacity="0.8" d="M507.363 429.379C517.994 429.379 532.244 431.094 538.227 448.91V448.908C538.762 443.119 539.283 437.316 539.283 431.412C539.283 410.373 530.119 391.408 515.494 378.111C516.705 382.207 520.162 416.586 507.363 429.379Z" fill="#68217A"/>
<path opacity="0.2" d="M507.363 429.379C517.994 429.379 532.244 431.094 538.227 448.91V448.908C538.762 443.119 539.283 437.316 539.283 431.412C539.283 410.373 530.119 391.408 515.494 378.111C516.705 382.207 520.162 416.586 507.363 429.379Z" fill="#1E1E1E"/>
<path d="M497.113 336.199C474.828 319.094 435.91 320.215 408.41 337.434C390.57 348.604 370.76 345.236 364.359 368.084C363.154 372.385 364.869 387.867 358.297 398.855C351.725 409.844 333.363 418.783 331.437 437.998C328.373 468.57 347.217 491.012 355.604 499.93C365.771 510.744 370.293 510.592 366.141 525.387C364.078 532.734 362.439 540.301 362.439 547.973C362.439 563.584 363.625 565.635 376.512 565.635C398.232 565.635 411.102 564.715 418.006 536.939C402.023 519.76 395.881 499.045 393.6 483.879C392.988 477.24 392.68 470.572 392.482 463.912C392.473 463.568 392.449 463.227 392.436 462.885C392.432 462.777 392.424 462.67 392.418 462.562C392.426 462.637 392.436 462.709 392.441 462.785L409.582 441.43C417.746 431.258 431.236 428.826 444.268 429.426C468.279 429.426 498.457 422.092 513.082 394.785C528.4 366.174 510.945 346.818 497.113 336.199Z" fill="#68217A"/>
<path opacity="0.3" d="M497.113 336.199C474.828 319.094 435.91 320.215 408.41 337.434C390.57 348.604 370.76 345.236 364.359 368.084C363.154 372.385 364.869 387.867 358.297 398.855C351.725 409.844 333.363 418.783 331.437 437.998C328.373 468.57 347.217 491.012 355.604 499.93C365.771 510.744 370.293 510.592 366.141 525.387C364.078 532.734 362.439 540.301 362.439 547.973C362.439 563.584 363.625 565.635 376.512 565.635C398.232 565.635 411.102 564.715 418.006 536.939C402.023 519.76 395.881 499.045 393.6 483.879C392.988 477.24 392.68 470.572 392.482 463.912C392.473 463.568 392.449 463.227 392.436 462.885C392.432 462.777 392.424 462.67 392.418 462.562C392.426 462.637 392.436 462.709 392.441 462.785L409.582 441.43C417.746 431.258 431.236 428.826 444.268 429.426C468.279 429.426 498.457 422.092 513.082 394.785C528.4 366.174 510.945 346.818 497.113 336.199Z" fill="#1E1E1E"/>
<path d="M498.322 500.062C493.82 500.062 489.793 499.178 486.354 497.432C479.24 493.822 474.82 487.176 474.82 480.082V477.381L476.982 475.764C477.088 475.686 489.43 467.068 502.697 461.572C514.816 456.553 528.85 453.402 529.441 453.271L537.447 451.49L535.91 459.547C535.801 460.119 533.27 472.867 523.811 480.121C520.479 491.504 513.246 498.439 503.281 499.73C501.58 499.949 499.912 500.062 498.322 500.062Z" fill="#59B4D9"/>
<path d="M480.211 480.082C480.211 480.082 492.049 471.818 504.76 466.555C516.584 461.658 530.611 458.535 530.611 458.535C530.611 458.535 528.215 471.092 519.107 476.83L480.211 480.082Z" fill="#68217A"/>
<path opacity="0.4" d="M480.211 480.082C480.211 480.082 492.049 471.818 504.76 466.555C516.584 461.658 530.611 458.535 530.611 458.535C530.611 458.535 528.215 471.092 519.107 476.83L480.211 480.082Z" fill="#1E1E1E"/>
<path d="M502.584 494.383C513.629 492.951 519.266 483.049 520.398 468.371C520.398 468.371 512.426 469.309 499.186 473.453C489.869 476.369 480.211 480.082 480.211 480.082C480.211 485.365 483.789 490.084 488.791 492.623C493.004 494.76 497.979 494.98 502.584 494.383Z" fill="white"/>
<path d="M449.408 480.082C449.408 480.082 437.57 471.818 424.859 466.555C413.035 461.658 399.008 458.535 399.008 458.535C399.008 458.535 401.404 471.092 410.512 476.83L449.408 480.082Z" fill="#68217A"/>
<path opacity="0.4" d="M449.408 480.082C449.408 480.082 437.57 471.818 424.859 466.555C413.035 461.658 399.008 458.535 399.008 458.535C399.008 458.535 401.404 471.092 410.512 476.83L449.408 480.082Z" fill="#1E1E1E"/>
<path d="M427.035 494.383C415.99 492.951 410.354 483.049 409.221 468.371C409.221 468.371 417.193 469.309 430.434 473.453C439.75 476.369 449.408 480.082 449.408 480.082C449.408 485.365 445.83 490.084 440.828 492.623C436.615 494.76 431.641 494.98 427.035 494.383Z" fill="white"/>
<path d="M523.869 520.352H480.211V532.598H515.264C518.6 528.635 521.443 524.518 523.869 520.352Z" fill="white"/>
<path d="M378.805 531.295C378.344 545.385 385.215 554.396 393.346 559.031C387.186 552.688 384.951 546.221 384.365 538.98C383.494 528.24 392.686 528.457 390.32 508.973C387.699 487.393 362.543 460.328 374.268 435.43C382.129 418.736 401.381 419.602 410.715 419.016C424.227 418.166 437.451 421.959 451.02 421.168C471.707 419.963 500.268 398.826 508.715 385.883C496.551 398.57 469.318 421.559 437.645 413.512C420.748 409.219 403.025 406.492 386.127 411.83C369.396 417.115 359.752 430.566 359.793 448.113C359.848 471.604 373.965 478.516 381.023 500.135C387.475 519.896 379.084 522.756 378.805 531.295Z" fill="#EC008C"/>
<path d="M375.852 396.601C387.395 387.402 400.758 388.969 407.814 391.455C418.029 395.053 420.629 400.248 435.029 405.64C450.555 411.453 468.238 410.125 495.969 394.092C495.969 394.092 459.16 417.273 431.381 397.56C420.008 389.49 417.717 383.679 403.602 382.328C389.631 380.988 382.098 387.703 375.852 396.601Z" fill="#EC008C"/>
<path d="M447.311 345.672C447.311 345.672 507.363 327.738 514.074 374.926C514.074 374.928 512.596 342.158 447.311 345.672Z" fill="#EC008C"/>
</g>
<defs>
<clipPath id="clip0">
<path d="M0 0H893V893H0V0Z" fill="white"/>
</clipPath>
</defs>
</svg>
